<svg xmlns="http://www.w3.org/2000/svg" xmlns:xlink="http://www.w3.org/1999/xlink" fill="none" version="1.1" width="140" height="28" viewBox="0 0 140 28"><g><g><g><g><g><path d="M45.35565185546875,24.271214843750002L53.10305185546875,24.271214843750002C53.57919185546875,24.271214843750002,54.01815185546875,24.013814843749998,54.25294185546875,23.59651484375L60.39765185546875,12.65771484375L51.91451185546875,12.65771484375L45.35565185546875,24.271214843750002Z" fill="#D7001D" fill-opacity="1" style="mix-blend-mode:passthrough"/></g><g><path d="M60.397629375,3.7119140625L65.445609375,3.7119140625L62.921269375,8.1849640625L60.397629375,12.6587440625L57.873249375,8.1849640625L55.349609375,3.7119140625L60.397629375,3.7119140625Z" fill="#D7001D" fill-opacity="1" style="mix-blend-mode:passthrough"/></g><g><path d="M45.788782421875,3.711669385L28.870632421875,3.711669385C28.269065421875,3.711669385,27.781982421875,4.2023185,27.781982421875,4.8066475L27.781982421875,12.6577675L34.368542421875,12.6577675L34.368542421875,24.2881375L41.826482421875,24.2881375C42.427282421875,24.2881375,42.914382421875004,23.7989375,42.915082421875,23.1946375L42.928982421875,13.6097275L40.037782421875,13.6097275L45.789482421875,3.7109375L45.788782421875,3.711669385Z" fill="#231815" fill-opacity="1" style="mix-blend-mode:passthrough"/></g><g><path d="M46.86643798828125,12.6587440625L41.81768798828125,12.6587440625L44.34205798828125,8.1849640625L46.86643798828125,3.7119140625L49.39080798828125,8.1849640625L51.91448798828125,12.6587440625L46.86643798828125,12.6587440625Z" fill="#D7001D" fill-opacity="1" style="mix-blend-mode:passthrough"/></g><g><path d="M2.25896,0C1.01354,0,0,1.01944,0,2.27136L0,28L65.1313,28C66.3775,28,67.3903,26.9806,67.3903,25.7279L67.3903,0L2.25896,0ZM11.7447,18.3066L11.7447,24.2721L3.30677,24.2721L3.30677,4.60433C3.30677,4.11074,3.70417,3.71104,4.1949,3.71104L11.7447,3.71104L11.7447,9.359L15.5604,9.359L15.5604,5.09644L23.3224,13.9912L15.5604,22.886L15.5604,18.3058L11.7447,18.3058L11.7447,18.3066ZM23.9983,23.3788C23.9983,23.8717,23.6009,24.2721,23.1102,24.2721L15.7026,24.2721L23.9976,14.7664L23.9976,23.3795L23.9983,23.3788ZM23.9983,13.2175L15.7033,3.71177L23.9983,3.71177L23.9983,13.2175ZM66.1894,25.7286C66.1894,26.3161,65.7161,26.7921,65.1321,26.7921L26.581,26.7921L26.581,2.27136C26.581,1.68464,27.0543,1.20865,27.6383,1.20865L66.1894,1.20865L66.1894,25.7286Z" fill="#D7001D" fill-opacity="1" style="mix-blend-mode:passthrough"/></g></g><g><g><path d="M82.59997076171875,1.454588532447815L80.75883076171876,1.454588532447815C80.45039076171875,1.454588532447815,80.20101076171875,1.706146532447815,80.20101076171875,2.0156445324478147L80.20101076171875,6.849528532447815L79.40549076171875,6.849528532447815L79.40549076171875,1.454588532447815L77.56434476171874,1.454588532447815C77.25590876171874,1.454588532447815,77.00653076171875,1.706146532447815,77.00653076171875,2.0156445324478147L77.00653076171875,16.377988532447816L79.40622076171876,14.901588532447814L79.40622076171876,7.910768532447815L80.20174076171875,7.910768532447815L80.20174076171875,18.407288532447815L82.60070076171876,16.930188532447815L82.60070076171876,7.910028532447815L82.88143076171875,7.910028532447815L83.61570076171876,6.849528532447815L82.60142076171876,6.849528532447815L82.60142076171876,1.454588532447815L82.59997076171875,1.454588532447815Z" fill="#231815" fill-opacity="1" style="mix-blend-mode:passthrough"/></g><g><path d="M84.4710220078125,1.454345392947815C84.1633160078125,1.454345392947815,83.9132080078125,1.705903969947815,83.9132080078125,2.015400969947815L83.9132080078125,2.5148519699478147L95.7950080078125,2.5148519699478147L95.7950080078125,1.453611969947815L84.4710130078125,1.453611969947815L84.4710220078125,1.454345392947815Z" fill="#231815" fill-opacity="1" style="mix-blend-mode:passthrough"/></g><g><path d="M95.2386080078125,4.231933401537815L84.4710220078125,4.231933401537815C84.1633160078125,4.231933401537815,83.9132080078125,4.482758282447815,83.9132080078125,4.792989282447815L83.9132080078125,15.482432282447816L92.25997800781249,15.482432282447816L92.9942480078125,14.421132282447815L86.3128880078125,14.421132282447815L86.3128880078125,10.337542282447815L92.2606980078125,10.337542282447815L92.9949680078125,9.277032282447815L86.3136080078125,9.277032282447815L86.3136080078125,5.292442282447815L93.3879880078125,5.292442282447815L93.3879880078125,15.482432282447816L95.7877080078125,14.005312282447814L95.7877080078125,5.292442282447815L95.7964080078125,5.292442282447815L95.7964080078125,4.791521282447815C95.7964080078125,4.482024282447815,95.54700800781251,4.231932282447815,95.2401080078125,4.231932282447815L95.2386080078125,4.231933401537815Z" fill="#231815" fill-opacity="1" style="mix-blend-mode:passthrough"/></g><g><path d="M83.9132080078125,17.750018376197815L83.9132080078125,18.250938376197816L95.7950080078125,18.250938376197816L95.7950080078125,17.190428376197815L84.4695540078125,17.190428376197815C84.1618470078125,17.190428376197815,83.9131991068525,17.441253376197814,83.9132080078125,17.750018376197815Z" fill="#231815" fill-opacity="1" style="mix-blend-mode:passthrough"/></g></g><g><g><path d="M136.195971484375,16.79276427516937L137.458901484375,6.368904275169372L137.461091484375,6.368904275169372L137.587961484375,5.307664275169373L135.495251484375,5.307664275169373L134.328581484375,5.307664275169373L135.063587484375,6.368904275169372L135.366181484375,6.368904275169372L134.103271484375,16.79276427516937L136.195971484375,16.79276427516937Z" fill="#231815" fill-opacity="1" style="mix-blend-mode:passthrough"/></g><g><path d="M139.40645755859376,1.5703810453414917L134.77479155859376,1.5703810453414917C134.46635555859376,1.5703810453414917,134.21624755859375,1.8219400453414916,134.21624755859375,2.132171045341492L134.21624755859375,2.632351045341492L137.87082755859376,2.632351045341492L137.87082755859376,17.475781045341492L135.68697755859375,17.475781045341492L135.29614755859376,18.537781045341493L137.87010755859376,18.537781045341493L139.96281755859374,17.05988104534149L139.96281755859374,2.1307040453414916C139.96281755859374,1.8212060453414918,139.71343755859374,1.5703810453414917,139.40572755859375,1.5703810453414917L139.40645755859376,1.5703810453414917Z" fill="#231815" fill-opacity="1" style="mix-blend-mode:passthrough"/></g><g><path d="M125.5406323046875,1.3237990140914917L124.0064623046875,1.3237990140914917C123.6980323046875,1.3237990140914917,123.4479223046875,1.5753580140914916,123.4479223046875,1.8855890140914917L123.4479223046875,3.2673290140914917L122.0471963046875,3.2673290140914917C121.7394903046875,3.2673290140914917,121.4901123046875,3.5181490140914917,121.4901123046875,3.8276490140914916L121.4901123046875,4.328569014091492L127.4977223046875,4.328569014091492L127.4977223046875,3.2665890140914917L125.5406323046875,3.2665890140914917L125.5406323046875,1.3237990140914917Z" fill="#231815" fill-opacity="1" style="mix-blend-mode:passthrough"/></g><g><path d="M125.405124375,5.307664275169373L124.413464375,14.055744275169372L123.698154375,5.307664275169373L121.605439375,5.307664275169373L122.400962375,15.036304275169373L124.302624375,15.036304275169373L124.086794375,16.943164275169373L121.490234375,17.475664275169372L121.490234375,18.537564275169373L127.497844375,17.30546427516937L127.497844375,16.24426427516937L126.229084375,16.50386427516937L127.497844375,5.307664275169373L125.405124375,5.307664275169373Z" fill="#231815" fill-opacity="1" style="mix-blend-mode:passthrough"/></g><g><path d="M130.02720927734376,16.79276427516937L131.29086927734375,6.368904275169372L131.29231927734375,6.368904275169372L131.41918927734375,5.307664275169373L129.32648927734374,5.307664275169373L128.16054927734376,5.307664275169373L128.89481627734375,6.368904275169372L129.19814927734376,6.368904275169372L127.93450927734375,16.79276427516937L130.02720927734376,16.79276427516937Z" fill="#231815" fill-opacity="1" style="mix-blend-mode:passthrough"/></g><g><path d="M133.2376929296875,1.5703810453414917L128.6052969296875,1.5703810453414917C128.2968609296875,1.5703810453414917,128.0467529296875,1.8219400453414916,128.0467529296875,2.132171045341492L128.0467529296875,2.632351045341492L131.7013329296875,2.632351045341492L131.7013329296875,17.475781045341492L129.5174829296875,17.475781045341492L129.1266529296875,18.537781045341493L131.7006129296875,18.537781045341493L133.7933229296875,17.05988104534149L133.7933229296875,2.1307040453414916C133.7933229296875,1.8212060453414918,133.5439429296875,1.5703810453414917,133.2362329296875,1.5703810453414917L133.2376929296875,1.5703810453414917Z" fill="#231815" fill-opacity="1" style="mix-blend-mode:passthrough"/></g></g><g><path d="M109.86207216796875,8.106341452178956L117.74947216796875,8.106341452178956L117.74947216796875,7.044371452178955L109.78557216796875,7.044371452178955L109.78557216796875,2.707001452178955L117.01447216796875,2.707001452178955L117.01447216796875,1.645031452178955L100.56887216796875,1.645031452178955C100.26043216796874,1.645031452178955,100.01032216796875,1.896590452178955,100.01032216796875,2.2068214521789553L100.01032216796875,2.707001452178955L107.23928216796875,2.707001452178955L107.23928216796875,7.044371452178955L99.83241216796876,7.044371452178955C99.52470216796875,7.044371452178955,99.27532716796875,7.295191452178955,99.27532716796875,7.6046914521789555L99.27532716796875,8.106341452178956L107.16272216796875,8.106341452178956Q106.33001216796875,13.785131452178955,98.50897216796875,18.215631452178954L102.27731216796874,18.215631452178954Q106.40877216796875,15.678031452178955,108.51167216796875,11.688331452178955Q110.61457216796875,15.678031452178955,114.74607216796875,18.215631452178954L118.51437216796876,18.215631452178954Q110.69337216796875,13.785131452178955,109.86067216796874,8.106341452178956L109.86207216796875,8.106341452178956Z" fill="#231815" fill-opacity="1" style="mix-blend-mode:passthrough"/></g><g><g><path d="M78.0018896484375,26.290433692849874C78.1229296484375,26.348373692849876,78.2446996484375,26.459113692849876,78.4583496484375,26.593323692849875C78.8163696484375,26.808213692849876,79.2837596484375,26.848553692849876,79.9195996484375,26.848553692849876C80.6239796484375,26.848553692849876,81.4559496484375,26.813343692849873,82.0159496484375,26.755413692849874C81.9809496484375,26.830953692849874,81.9408496484375,26.965163692849874,81.9350196484375,27.045843692849875C81.4960596484375,27.075173692849873,80.4504296484375,27.103783692849873,79.9130396484375,27.103783692849873C79.23709964843749,27.103783692849873,78.7521996484375,27.045843692849875,78.3708496484375,26.813353692849873C78.1513696484375,26.674003692849872,77.9719996484375,26.494313692849875,77.8509496484375,26.494313692849875C77.6314726484375,26.494313692849875,77.3310556484375,26.778883692849874,76.9963706484375,27.156583692849875L76.8118896484375,26.929963692849874C77.1524136484375,26.592593692849874,77.4644906484375,26.325633692849873,77.7364766484375,26.261093692849876L77.7364766484375,24.286033692849873L76.8235588484375,24.286033692849873L76.8235588484375,24.019073692849876L78.0018896484375,24.019073692849876L78.0018896484375,26.290433692849874ZM77.8742796484375,23.367803692849876C77.6949096484375,23.094243692849876,77.3084476484375,22.670334692849874,76.9788626484375,22.362305692849876L77.1925126484375,22.222958692849875C77.5213676484375,22.513386692849874,77.9143896484375,22.937295692849876,78.0988696484375,23.204993692849875L77.8735596484375,23.367803692849876L77.8742796484375,23.367803692849876ZM79.9596996484375,25.023833692849873C79.5900096484375,25.575353692849873,79.0125096484375,26.104143692849874,78.4984396484375,26.371843692849875C78.4583396484375,26.302163692849874,78.3766696484375,26.203153692849874,78.3139596484375,26.151083692849873C78.8630296484375,25.907593692849876,79.4864596484375,25.367073692849875,79.8277096484375,24.814813692849874L78.60927964843751,24.814813692849874L78.60927964843751,23.449213692849874L79.9604296484375,23.449213692849874L79.9604296484375,22.874221692849876L78.3372996484375,22.874221692849876L78.3372996484375,22.624129692849873L79.9604296484375,22.624129692849873L79.9604296484375,21.961863692849874L80.2316696484375,21.961863692849874L80.2316696484375,22.624129692849873L81.9474096484375,22.624129692849873L81.9474096484375,22.874221692849876L80.2316696484375,22.874221692849876L80.2316696484375,23.449213692849874L81.6469896484375,23.449213692849874L81.6469896484375,24.814813692849874L80.3359496484375,24.814813692849874C80.8667796484375,25.215983692849875,81.4851196484375,25.738903692849874,81.7971996484375,26.087273692849873L81.6068896484375,26.272823692849876C81.3122996484375,25.936193692849876,80.7464696484375,25.436013692849876,80.2324096484375,25.035573692849873L80.2324096484375,26.587463692849873L79.9611696484375,26.587463692849873L79.9611696484375,25.024573692849874L79.9596996484375,25.023833692849873ZM78.8681396484375,24.576453692849874L79.9596996484375,24.576453692849874L79.9596996484375,23.693433692849876L78.8681396484375,23.693433692849876L78.8681396484375,24.576453692849874ZM80.2316696484375,23.693433692849876L80.2316696484375,24.576463692849874L81.3757296484375,24.576463692849874L81.3757296484375,23.693433692849876L80.2316696484375,23.693433692849876Z" fill="#231815" fill-opacity="1" style="mix-blend-mode:passthrough"/></g><g><path d="M83.45169569921875,24.175285634765626C83.45169569921875,25.058305634765624,83.38242869921875,26.336635634765624,82.89680069921874,27.231385634765626C82.84430269921874,27.179315634765626,82.72325899921876,27.115515634765625,82.65399169921875,27.086175634765624C83.13305069921876,26.225885634765625,83.17971769921876,25.028965634765626,83.17971769921876,24.175285634765626L83.17971769921876,22.583056634765626L85.45617169921874,22.583056634765626C85.38107169921875,22.403371634765627,85.27096169921874,22.176748634765627,85.16743169921875,22.008066434765624L85.43284169921876,21.932525634765625C85.55972169921876,22.135678634765625,85.69899169921875,22.397505634765626,85.77337169921876,22.583056634765626L87.83545169921875,22.583056634765626L87.83545169921875,22.844883634765626L83.45097469921875,22.844883634765626L83.45097469921875,24.175285634765626L83.45169569921875,24.175285634765626ZM87.30461169921875,25.372205634765624C87.02096169921874,25.877525634765625,86.56523169921876,26.255225634765626,86.01107169921875,26.533925634765623C86.56596169921875,26.760545634765627,87.21273169921875,26.905755634765626,87.91128169921875,26.981295634765626C87.84784169921875,27.045105634765626,87.77858169921875,27.149985634765624,87.74941169921875,27.225525634765624C87.00420169921875,27.126515634765624,86.30492169921875,26.946825634765624,85.70409169921875,26.673265634765624C85.05732169921875,26.946825634765624,84.31211169921875,27.097175634765627,83.56617969921875,27.190315634765625C83.54357169921875,27.120645634765623,83.48524369921876,27.016505634765625,83.43930569921875,26.946825634765624C84.12034169921876,26.877155634765625,84.80795169921875,26.748805634765624,85.41461169921875,26.522185634765627C84.98149169921875,26.278695634765626,84.61763169921875,25.970665634765624,84.36315169921875,25.604695634765626L84.55929169921875,25.523285634765625L83.70981169921875,25.523285634765625L83.70981169921875,25.279055634765626L87.07200169921875,25.279055634765626L87.12961169921876,25.261455634765625L87.30315169921874,25.371475634765623L87.30461169921875,25.372205634765624ZM84.62420169921874,24.820685634765624L84.62420169921874,23.832785634765624L83.60774769921875,23.832785634765624L83.60774769921875,23.588565634765626L84.62420169921874,23.588565634765626L84.62420169921874,23.013575634765626L84.88962169921875,23.013575634765626L84.88962169921875,23.588565634765626L86.50691169921875,23.588565634765626L86.50691169921875,23.013575634765626L86.77889169921875,23.013575634765626L86.77889169921875,23.588565634765626L87.77202169921875,23.588565634765626L87.77202169921875,23.832785634765624L86.77889169921875,23.832785634765624L86.77889169921875,24.820685634765624L84.62420169921874,24.820685634765624ZM84.61326169921875,25.523285634765625C84.86774169921875,25.883385634765624,85.24836169921875,26.179685634765626,85.71066169921875,26.406305634765623C86.20723169921875,26.185555634765624,86.62358169921875,25.900985634765625,86.89483169921876,25.523285634765625L84.61326169921875,25.523285634765625ZM84.89034169921875,23.832785634765624L84.89034169921875,24.582325634765624L86.50763169921875,24.582325634765624L86.50763169921875,23.832785634765624L84.89034169921875,23.832785634765624Z" fill="#231815" fill-opacity="1" style="mix-blend-mode:passthrough"/></g><g><path d="M94.40375645955375,24.739142509765625L96.36229755859375,24.739142509765625L96.36229755859375,27.162312509765627L96.08520755859375,27.162312509765627L96.08520755859375,26.888752509765624L94.66989555859375,26.888752509765624L94.66989555859375,27.219522509765625L94.40374755859375,27.219522509765625L94.40374755859375,24.738402509765624L94.40375645955375,24.739142509765625ZM94.66989555859375,25.006832509765626L94.66989555859375,26.621792509765626L96.08520755859375,26.621792509765626L96.08520755859375,25.006832509765626L94.66989555859375,25.006832509765626ZM98.29166755859374,24.041672509765625L95.27072755859375,24.041672509765625L95.27072755859375,22.211822509765625L98.29166755859374,22.211822509765625L98.29166755859374,24.041672509765625ZM98.01457755859374,22.484649509765624L95.54197755859374,22.484649509765624L95.54197755859374,23.774712509765624L98.01457755859374,23.774712509765624L98.01457755859374,22.484649509765624ZM99.16958755859375,24.739142509765625L99.16958755859375,27.179922509765625L98.89760755859375,27.179922509765625L98.89760755859375,26.889492509765624L97.34958755859375,26.889492509765624L97.34958755859375,27.220252509765626L97.07761755859374,27.220252509765626L97.07761755859374,24.739142509765625L99.16886755859375,24.739142509765625L99.16958755859375,24.739142509765625ZM98.89832755859375,26.621802509765626L98.89832755859375,25.006832509765626L97.35030755859376,25.006832509765626L97.35030755859376,26.621802509765626L98.89832755859375,26.621802509765626Z" fill="#231815" fill-opacity="1" style="mix-blend-mode:passthrough"/></g><g><path d="M105.220249609375,23.216842509765627L105.220249609375,23.477932509765626L103.112229609375,23.477932509765626C103.083059609375,23.722162509765624,103.048059609375,23.954652509765626,103.019619609375,24.146072509765624L104.717849609375,24.146072509765624L104.717849609375,26.132872509765626L104.434209609375,26.132872509765626L104.434209609375,24.407162509765627L101.707849609375,24.407162509765627L101.707849609375,26.121132509765623L101.430759609375,26.121132509765623L101.430759609375,24.145332509765623L102.748359609375,24.145332509765623C102.777529609375,23.953912509765626,102.811799609375,23.721422509765624,102.835129609375,23.477202509765625L100.922527609375,23.477202509765625L100.922527609375,23.216112509765626L102.863569609375,23.216112509765626C102.892739609375,22.977753509765623,102.916069609375,22.733529509765624,102.932839609375,22.518640509765625C102.262739609375,22.576579509765626,101.558359609375,22.623516509765626,100.899188609375,22.652120509765624L100.899188609375,24.022862509765623C100.899188609375,24.940352509765624,100.824082609375,26.248012509765626,100.258248609375,27.148632509765626C100.212310609375,27.107562509765625,100.090536709375,27.032022509765625,100.027099609375,27.009292509765626C100.576164609375,26.126262509765624,100.627932609375,24.905882509765625,100.627932609375,24.022862509765623L100.627932609375,22.419629509765624C102.014079609375,22.361690509765626,103.747309609375,22.227477509765624,104.636889609375,22.024322509765625L104.862199609375,22.250944509765624C104.423239609375,22.344086509765624,103.851579609375,22.425496509765626,103.227399609375,22.495168509765627C103.204799609375,22.715924509765625,103.175639609375,22.965282509765625,103.146469609375,23.215372509765626L105.220209609375,23.215372509765626L105.220249609375,23.216842509765627ZM103.198269609375,25.244712509765627C103.198269609375,25.849042509765624,103.030559609375,26.656522509765626,101.177019609375,27.219772509765626C101.136189609375,27.155972509765625,101.055249609375,27.051822509765625,101.004211609375,26.993892509765626C102.788479609375,26.494442509765626,102.916079609375,25.761762509765624,102.916079609375,25.238842509765625L102.916079609375,24.675592509765625L103.198999609375,24.675592509765625L103.198999609375,25.244712509765627L103.198269609375,25.244712509765627ZM103.360869609375,26.122602509765624C103.961709609375,26.348492509765624,104.723679609375,26.720332509765626,105.134199609375,26.970422509765626L104.925659609375,27.162572509765624C104.526809609375,26.906612509765626,103.770669609375,26.523042509765624,103.163989609375,26.290552509765625L103.360869609375,26.122602509765624Z" fill="#231815" fill-opacity="1" style="mix-blend-mode:passthrough"/></g><g><path d="M113.36499267578125,24.808947424200177C113.11635267578124,24.884487424200177,112.86843267578125,24.96589742420018,112.62562267578124,25.047307424200177L112.62562267578124,26.836817424200177C112.62562267578124,27.039967424200178,112.56801267578125,27.115507424200178,112.44624867578125,27.16758742420018C112.31937367578125,27.213787424200177,112.09989367578125,27.21965742420018,111.70687267578126,27.213787424200177C111.69593267578125,27.144117424200175,111.64926567578125,27.033377424200175,111.61426667578125,26.958567424200176C111.91468267578125,26.964427424200178,112.16916167578125,26.964427424200178,112.23843767578126,26.958567424200176C112.31937367578125,26.958567424200176,112.35364267578124,26.929227424200178,112.35364267578124,26.84194742420018L112.35364267578124,25.133847424200177C112.07655567578125,25.21525742420018,111.81697667578125,25.30252742420018,111.58509827578125,25.372207424200177L111.49249267578125,25.099377424200178C111.72947167578126,25.034837424200177,112.02988767578125,24.948297424200177,112.35291267578125,24.849287424200178L112.35291267578125,23.43747742420018L111.56176887578125,23.43747742420018L111.56176887578125,23.170517424200177L112.35291267578125,23.170517424200177L112.35291267578125,21.956729309200178L112.62489267578125,21.956729309200178L112.62489267578125,23.170517424200177L113.30593267578125,23.170517424200177L113.30593267578125,23.43747742420018L112.62489267578125,23.43747742420018L112.62489267578125,24.767877424200176C112.85604267578125,24.698207424200177,113.09885267578125,24.622667424200177,113.33000267578124,24.552987424200175L113.36426267578125,24.808947424200177L113.36499267578125,24.808947424200177ZM116.38010267578125,24.23982742420018C116.13145267578125,25.02456742420018,115.69249267578125,25.657497424200177,115.15509267578125,26.145217424200176C115.59405267578126,26.52878742420018,116.12562267578124,26.819217424200176,116.74322267578125,26.987167424200177C116.67395267578125,27.045107424200175,116.60468267578125,27.149987424200177,116.55874267578125,27.225527424200177C115.93530267578124,27.039237424200177,115.39790267578125,26.73120742420018,114.95311267578126,26.319037424200175C114.42228267578125,26.74367742420018,113.82144267578126,27.039977424200178,113.22061267578125,27.225527424200177C113.19144267578125,27.144117424200175,113.11634267578125,27.033377424200175,113.07040267578125,26.96956742420018C113.65373267578126,26.812617424200177,114.24290267578125,26.53392742420018,114.75113267578125,26.127617424200178C114.30634267578125,25.668497424200176,113.96582267578125,25.093507424200176,113.72884267578125,24.430517424200175L113.52030267578125,24.430517424200175L113.52030267578125,24.16354742420018L114.82624267578124,24.16354742420018L114.82624267578124,23.18738742420018L113.39926267578124,23.18738742420018L113.39926267578124,22.920426424200176L114.82624267578124,22.920426424200176L114.82624267578124,21.955997424200177L115.10332267578124,21.955997424200177L115.10332267578124,22.920426424200176L116.54124267578125,22.920426424200176L116.54124267578125,23.18738742420018L115.10332267578124,23.18738742420018L115.10332267578124,24.16354742420018L116.14895267578125,24.16354742420018L116.20655267578125,24.15181742420018L116.38010267578125,24.239097424200178L116.38010267578125,24.23982742420018ZM114.00593267578125,24.431247424200176C114.21958267578125,25.017967424200176,114.54260267578125,25.535757424200177,114.96479267578125,25.959667424200177C115.41542267578124,25.55335742420018,115.79677267578126,25.042167424200176,116.02791267578125,24.431247424200176L114.00593267578125,24.431247424200176Z" fill="#231815" fill-opacity="1" style="mix-blend-mode:passthrough"/></g><g><path d="M120.2826122265625,23.728114228515626C120.8426122265625,24.680804228515626,121.8189622265625,25.714914228515624,122.6108422265625,26.220964228515626C122.5474022265625,26.278904228515625,122.4489722265625,26.383774228515627,122.3971922265625,26.453454228515625C121.6636522265625,25.936404228515624,120.7682422265625,24.966104228515626,120.1674022265625,24.030274228515626L120.1674022265625,27.226464228515624L119.8728222265625,27.226464228515624L119.8728222265625,24.141024228515626C119.2953122265625,25.123054228515624,118.4283322265625,26.023674228515624,117.5970932265625,26.499654228515624C117.5453252265625,26.429984228515625,117.4585495265625,26.325844228515624,117.3892822265625,26.267164228515625C118.3073002265625,25.790454228515625,119.2668822265625,24.762214228515624,119.7918822265625,23.728114228515626L117.5329262265625,23.728114228515626L117.5329262265625,23.454554228515626L119.8728222265625,23.454554228515626L119.8728222265625,21.961334228515625L120.1674022265625,21.961334228515625L120.1674022265625,23.454544228515626L122.4489722265625,23.454544228515626L122.4489722265625,23.728114228515626L120.2833522265625,23.728114228515626L120.2826122265625,23.728114228515626ZM121.7146922265625,23.129654228515626C121.4777122265625,22.891295228515624,121.0095922265625,22.520192228515626,120.6282322265625,22.264234228515626L120.8302122265625,22.090417228515626C121.2057422265625,22.334640228515624,121.6796922265625,22.694743228515627,121.9166722265625,22.927234228515626L121.7146922265625,23.130384228515624L121.7146922265625,23.129654228515626Z" fill="#231815" fill-opacity="1" style="mix-blend-mode:passthrough"/></g><g><path d="M130.88180453125,26.842832197265626C130.88180453125,27.034252197265623,130.82931453125,27.121532197265626,130.70243453125,27.173602197265623C130.57556453125,27.219802197265626,130.35608453125,27.226402197265624,129.95139453125,27.219802197265626C129.94556453125,27.150132197265627,129.90545453125,27.034252197265623,129.86534453125,26.958712197265626C130.17159453125,26.964582197265624,130.42535453125,26.964582197265624,130.50044453125,26.958712197265626C130.58721453125,26.952852197265624,130.61638453125,26.929382197265625,130.61638453125,26.836972197265624L130.61638453125,25.238872197265625L129.51825353125,25.238872197265625C129.47231553125,25.930472197265626,129.35638053125,26.668282197265626,129.07929353125,27.232272197265626C129.02679553125,27.180202197265626,128.91158163125,27.109792197265627,128.84814453125,27.092922197265626C129.25793553125,26.256112197265626,129.29293453125,25.106132197265623,129.29293453125,24.245842197265624L129.29293453125,22.183502197265625L130.88106453125,22.183502197265625L130.88106453125,26.843572197265626L130.88180453125,26.842832197265626ZM130.61640453125,24.971912197265624L130.61640453125,23.827072197265625L129.55327853125,23.827072197265625L129.55327853125,24.245112197265627C129.55327853125,24.466602197265626,129.54744853125,24.715962197265625,129.53577953125,24.971922197265624L130.61640453125,24.971912197265624ZM129.55326953125,22.443863197265625L129.55326953125,23.559372197265624L130.61639453125,23.559372197265624L130.61639453125,22.443863197265625L129.55326953125,22.443863197265625ZM133.97858453125,24.198902197265625C133.81087453125,24.988782197265625,133.50462453125,25.645912197265623,133.11816453125,26.157102197265626C133.41785453125,26.528942197265625,133.76493453125,26.819372197265626,134.15212453125,27.016652197265625C134.08869453125,27.069462197265626,134.00775453125,27.161872197265623,133.96181453125,27.231542197265625C133.59213453125,27.028392197265624,133.25671453125,26.725492197265623,132.96213453125,26.360252197265623C132.66754453125,26.702752197265625,132.34380453125,26.969712197265626,132.00327453125,27.167732197265625C131.96827453125,27.103932197265625,131.89317453125,27.016652197265625,131.83556453125,26.964582197265624C132.17681453125,26.784162197265626,132.51150453125,26.505472197265625,132.80609453125,26.151232197265625C132.44733453125,25.651782197265625,132.17025453125,25.053322197265626,131.97410453125,24.408662197265624L131.76556453125,24.408662197265624L131.76556453125,27.220542197265626L131.49432453125,27.220542197265626L131.49432453125,22.200371397265624L133.81671453125,22.200371397265624L133.81671453125,23.322482197265625C133.81671453125,23.491162197265623,133.78244453125,23.572572197265625,133.63807453125,23.618782197265624C133.48785453125,23.664982197265626,133.21588453125,23.664982197265626,132.78276453125,23.664982197265626C132.76526453125,23.577712197265626,132.71932453125,23.491172197265627,132.67848453125,23.414892197265626C133.07150453125,23.420762197265624,133.35442453125,23.420762197265624,133.43536453125,23.414892197265626C133.52796453125,23.414892197265626,133.55129453125,23.391422197265626,133.55129453125,23.321752197265624L133.55129453125,22.461464197265624L131.76629453125,22.461464197265624L131.76629453125,24.146102197265623L133.76494453125,24.146102197265623L133.81671453125,24.134362197265624L133.97858453125,24.198172197265624L133.97858453125,24.198902197265625ZM132.22201453125,24.407922197265624C132.39483453125,24.971182197265627,132.64347453125,25.499972197265624,132.96139453125,25.947342197265627C133.26764453125,25.517572197265626,133.51628453125,25.000522197265624,133.67160453125,24.407922197265624L132.22128453125,24.407922197265624L132.22201453125,24.407922197265624Z" fill="#231815" fill-opacity="1" style="mix-blend-mode:passthrough"/></g><g><path d="M139.3357299609375,22.68793591665101C138.9893799609375,23.21671891665101,138.4352099609375,23.62302891665101,137.7709399609375,23.93105891665101C138.4060399609375,24.16941891665101,139.1745899609375,24.30289891665101,139.9999999609375,24.360838916651012C139.9423899609375,24.42463891665101,139.8731299609375,24.52951891665101,139.8439599609375,24.610928916651012C138.9543799609375,24.52951891665101,138.1282299609375,24.360838916651012,137.4522899609375,24.07040891665101C136.6553099609375,24.396038916651012,135.7482259609375,24.58745891665101,134.8936449609375,24.69233891665101C134.8761456609375,24.61679891665101,134.8243776609375,24.50091891665101,134.7777099609375,24.43710891665101C135.5695839609375,24.36156891665101,136.4066699609375,24.19875891665101,137.1460399609375,23.92592891665101C136.7355199609375,23.71103891665101,136.3949999609375,23.44407891665101,136.1470899609375,23.11184891665101C135.8933399609375,23.33846891665101,135.6038609609375,23.55921891665101,135.2750069609375,23.745508916651012C135.2290689609375,23.681698916651012,135.1423019609375,23.59442891665101,135.0781349609375,23.54821891665101C135.8926199609375,23.09497891665101,136.4759499609375,22.46204791665101,136.7763699609375,21.95012891665101L137.0767799609375,22.00293431665101C136.9666799609375,22.18921991665101,136.8223099609375,22.38577291665101,136.6662599609375,22.57792491665101L139.1155299609375,22.57792491665101L139.1672999609375,22.56032391665101L139.3350099609375,22.68793591665101L139.3357299609375,22.68793591665101ZM139.4341699609375,25.33773891665101C139.3014599609375,26.43564891665101,139.1855199609375,26.85954891665101,139.0010499609375,27.02823891665101C138.8967699609375,27.12137891665101,138.7932399609375,27.15071891665101,138.6196899609375,27.15584891665101C138.4578199609375,27.16171891665101,138.1406399609375,27.15584891665101,137.8168799609375,27.13237891665101C137.8110499609375,27.05096891665101,137.7709399609375,26.95195891665101,137.7242699609375,26.876418916651012C138.0764599609375,26.91088891665101,138.4228099609375,26.91748891665101,138.5445899609375,26.91748891665101C138.6663599609375,26.91748891665101,138.7297999609375,26.91088891665101,138.7815699609375,26.86541891665101C138.9259399609375,26.74366891665101,139.0360499609375,26.34763891665101,139.1454199609375,25.45287891665101L137.2627199609375,25.45287891665101C136.9105299609375,26.45837891665101,136.1820899609375,26.94022891665101,134.9920899609375,27.213788916651012C134.9694809609375,27.14410891665101,134.8994839609375,27.02236891665101,134.8477160609375,26.95855891665101C135.9684399609375,26.75467891665101,136.6436499609375,26.32489891665101,136.9732399609375,25.45360891665101L135.2633459609375,25.45360891665101L135.2633459609375,25.198388916651012L137.0483399609375,25.198388916651012C137.1001099609375,25.00696891665101,137.1409499609375,24.79720891665101,137.1701199609375,24.56471891665101L137.4588699609375,24.59405891665101C137.4304299609375,24.808948916651012,137.3895999609375,25.01209891665101,137.3378199609375,25.19837891665101L139.4516799609375,25.19837891665101L139.4341699609375,25.33773891665101ZM136.4416599609375,22.82801691665101C136.4073999609375,22.86908691665101,136.3665599609375,22.90355791665101,136.3322899609375,22.94389391665101C136.5867699609375,23.29812891665101,136.9739599609375,23.58928891665101,137.4588499609375,23.80417891665101C138.0487399609375,23.55995891665101,138.5628099609375,23.23505891665101,138.9091599609375,22.82801691665101L136.4423899609375,22.82801691665101L136.4416599609375,22.82801691665101Z" fill="#231815" fill-opacity="1" style="mix-blend-mode:passthrough"/></g></g></g></g></g></svg>